<svg width="314" height="214" viewBox="0 0 314 214" fill="none" xmlns="http://www.w3.org/2000/svg">
<g filter="url(#filter0_d_0_1)">
<path d="M14 130C14.7708 119.726 19.8618 109.296 23.7281 99.9648C34.399 74.2098 45.9041 47.8468 61.0191 24.2669C63.976 19.6539 69.2552 9.27235 75.6884 8.02957C79.352 7.32185 78.8356 19.5375 78.8925 20.9889C79.7735 43.4304 74.9427 65.6534 75.148 88.1489C75.1904 92.8013 77.2326 96.6537 77.2326 101.184" stroke="white" stroke-width="15" stroke-linecap="round"/>
</g>
<g filter="url(#filter1_d_0_1)">
<path d="M12 95C13.0813 94.8942 14.0206 94.3434 14.9817 93.8782C22.5403 90.2194 30.0685 86.4992 37.6116 82.8098C53.9177 74.8345 70.2981 67.1478 87 60" stroke="white" stroke-width="15" stroke-linecap="round"/>
</g>
<g filter="url(#filter2_d_0_1)">
<path d="M122 47.4653C119.414 65.569 112.382 83.8554 105 100.465" stroke="white" stroke-width="15" stroke-linecap="round"/>
</g>
<g filter="url(#filter3_d_0_1)">
<path d="M117 65.4653C127.179 57.9252 135.144 49.2138 147 43.9098C157.426 39.2455 157.267 53.7213 156.944 60.0209C156.415 70.3474 156 80.5394 156 90.9098C156 94.6981 155.434 95.7563 159.667 94.9098C167.399 93.3632 172.352 88.6429 178 83.4653" stroke="white" stroke-width="15" stroke-linecap="round"/>
</g>
<g filter="url(#filter4_d_0_1)">
<path d="M234.509 53C225.766 118.571 170.77 170.024 110.009 190.278C90.9755 196.622 69.0089 201.218 49.3425 194.889C34.6543 190.162 30.6012 177.538 32.398 163C34.154 148.793 45.6381 136.716 57.8425 130.222C88.9541 113.667 127.851 118.32 161.676 119.056C197.209 119.828 232.102 120.467 267.565 117.556C279.958 116.538 290.541 114.906 301.509 109" stroke="white" stroke-width="15" stroke-linecap="round" shape-rendering="crispEdges"/>
</g>
<g filter="url(#filter5_d_0_1)">
<path d="M188 47C188 57.672 185.391 71.9341 196.056 78.3889C211.92 87.9912 227.372 61.9898 236 52" stroke="white" stroke-width="15" stroke-linecap="round"/>
</g>
<g filter="url(#filter6_d_0_1)">
<path d="M295.309 53.5038C295.579 58.1425 294.68 62.7062 295.135 67.3776C295.68 72.9752 297.296 79.0511 299.626 84.2731C300.134 85.4101 300.419 87.2833 301.85 87.7574" stroke="white" stroke-width="15" stroke-linecap="round"/>
</g>
<g filter="url(#filter7_d_0_1)">
<path d="M288.441 52.1659C287.805 52.3363 287.346 51.9495 286.82 51.7478C284.735 50.9486 282.477 50.5928 280.122 50.5639C275.16 50.503 270.256 51.3444 265.562 54.0495C255.07 60.095 250.798 72.9865 253.478 82.636C254.393 85.9299 255.726 90.7104 259.375 91.8355C263.988 93.2581 271.139 88.5064 274.901 85.5929C286.196 76.8476 293.813 64.4564 293.704 51.5745" stroke="white" stroke-width="15" stroke-linecap="round"/>
</g>
<defs>
<filter id="filter0_d_0_1" x="2.49965" y="0.499359" width="88" height="145.001" filterUnits="userSpaceOnUse" color-interpolation-filters="sRGB">
<feFlood flood-opacity="0" result="BackgroundImageFix"/>
<feColorMatrix in="SourceAlpha" type="matrix" values="0 0 0 0 0 0 0 0 0 0 0 0 0 0 0 0 0 0 127 0" result="hardAlpha"/>
<feOffset dy="4"/>
<feGaussianBlur stdDeviation="2"/>
<feComposite in2="hardAlpha" operator="out"/>
<feColorMatrix type="matrix" values="0 0 0 0 0 0 0 0 0 0 0 0 0 0 0 0 0 0 0.25 0"/>
<feBlend mode="normal" in2="BackgroundImageFix" result="effect1_dropShadow_0_1"/>
<feBlend mode="normal" in="SourceGraphic" in2="effect1_dropShadow_0_1" result="shape"/>
</filter>
<filter id="filter1_d_0_1" x="0.499466" y="52.4981" width="98.0025" height="58.0025" filterUnits="userSpaceOnUse" color-interpolation-filters="sRGB">
<feFlood flood-opacity="0" result="BackgroundImageFix"/>
<feColorMatrix in="SourceAlpha" type="matrix" values="0 0 0 0 0 0 0 0 0 0 0 0 0 0 0 0 0 0 127 0" result="hardAlpha"/>
<feOffset dy="4"/>
<feGaussianBlur stdDeviation="2"/>
<feComposite in2="hardAlpha" operator="out"/>
<feColorMatrix type="matrix" values="0 0 0 0 0 0 0 0 0 0 0 0 0 0 0 0 0 0 0.25 0"/>
<feBlend mode="normal" in2="BackgroundImageFix" result="effect1_dropShadow_0_1"/>
<feBlend mode="normal" in="SourceGraphic" in2="effect1_dropShadow_0_1" result="shape"/>
</filter>
<filter id="filter2_d_0_1" x="93.4981" y="39.9644" width="40.0028" height="76.0028" filterUnits="userSpaceOnUse" color-interpolation-filters="sRGB">
<feFlood flood-opacity="0" result="BackgroundImageFix"/>
<feColorMatrix in="SourceAlpha" type="matrix" values="0 0 0 0 0 0 0 0 0 0 0 0 0 0 0 0 0 0 127 0" result="hardAlpha"/>
<feOffset dy="4"/>
<feGaussianBlur stdDeviation="2"/>
<feComposite in2="hardAlpha" operator="out"/>
<feColorMatrix type="matrix" values="0 0 0 0 0 0 0 0 0 0 0 0 0 0 0 0 0 0 0.25 0"/>
<feBlend mode="normal" in2="BackgroundImageFix" result="effect1_dropShadow_0_1"/>
<feBlend mode="normal" in="SourceGraphic" in2="effect1_dropShadow_0_1" result="shape"/>
</filter>
<filter id="filter3_d_0_1" x="105.5" y="35.4984" width="84.0005" height="75.1844" filterUnits="userSpaceOnUse" color-interpolation-filters="sRGB">
<feFlood flood-opacity="0" result="BackgroundImageFix"/>
<feColorMatrix in="SourceAlpha" type="matrix" values="0 0 0 0 0 0 0 0 0 0 0 0 0 0 0 0 0 0 127 0" result="hardAlpha"/>
<feOffset dy="4"/>
<feGaussianBlur stdDeviation="2"/>
<feComposite in2="hardAlpha" operator="out"/>
<feColorMatrix type="matrix" values="0 0 0 0 0 0 0 0 0 0 0 0 0 0 0 0 0 0 0.25 0"/>
<feBlend mode="normal" in2="BackgroundImageFix" result="effect1_dropShadow_0_1"/>
<feBlend mode="normal" in="SourceGraphic" in2="effect1_dropShadow_0_1" result="shape"/>
</filter>
<filter id="filter4_d_0_1" x="20.5003" y="45.4991" width="292.51" height="167.917" filterUnits="userSpaceOnUse" color-interpolation-filters="sRGB">
<feFlood flood-opacity="0" result="BackgroundImageFix"/>
<feColorMatrix in="SourceAlpha" type="matrix" values="0 0 0 0 0 0 0 0 0 0 0 0 0 0 0 0 0 0 127 0" result="hardAlpha"/>
<feOffset dy="4"/>
<feGaussianBlur stdDeviation="2"/>
<feComposite in2="hardAlpha" operator="out"/>
<feColorMatrix type="matrix" values="0 0 0 0 0 0 0 0 0 0 0 0 0 0 0 0 0 0 0.25 0"/>
<feBlend mode="normal" in2="BackgroundImageFix" result="effect1_dropShadow_0_1"/>
<feBlend mode="normal" in="SourceGraphic" in2="effect1_dropShadow_0_1" result="shape"/>
</filter>
<filter id="filter5_d_0_1" x="176.218" y="39.5" width="71.2818" height="56.4801" filterUnits="userSpaceOnUse" color-interpolation-filters="sRGB">
<feFlood flood-opacity="0" result="BackgroundImageFix"/>
<feColorMatrix in="SourceAlpha" type="matrix" values="0 0 0 0 0 0 0 0 0 0 0 0 0 0 0 0 0 0 127 0" result="hardAlpha"/>
<feOffset dy="4"/>
<feGaussianBlur stdDeviation="2"/>
<feComposite in2="hardAlpha" operator="out"/>
<feColorMatrix type="matrix" values="0 0 0 0 0 0 0 0 0 0 0 0 0 0 0 0 0 0 0.25 0"/>
<feBlend mode="normal" in2="BackgroundImageFix" result="effect1_dropShadow_0_1"/>
<feBlend mode="normal" in="SourceGraphic" in2="effect1_dropShadow_0_1" result="shape"/>
</filter>
<filter id="filter6_d_0_1" x="283.512" y="45.9951" width="29.8308" height="57.2726" filterUnits="userSpaceOnUse" color-interpolation-filters="sRGB">
<feFlood flood-opacity="0" result="BackgroundImageFix"/>
<feColorMatrix in="SourceAlpha" type="matrix" values="0 0 0 0 0 0 0 0 0 0 0 0 0 0 0 0 0 0 127 0" result="hardAlpha"/>
<feOffset dy="4"/>
<feGaussianBlur stdDeviation="2"/>
<feComposite in2="hardAlpha" operator="out"/>
<feColorMatrix type="matrix" values="0 0 0 0 0 0 0 0 0 0 0 0 0 0 0 0 0 0 0.25 0"/>
<feBlend mode="normal" in2="BackgroundImageFix" result="effect1_dropShadow_0_1"/>
<feBlend mode="normal" in="SourceGraphic" in2="effect1_dropShadow_0_1" result="shape"/>
</filter>
<filter id="filter7_d_0_1" x="241.457" y="42.8129" width="63.4916" height="65.0302" filterUnits="userSpaceOnUse" color-interpolation-filters="sRGB">
<feFlood flood-opacity="0" result="BackgroundImageFix"/>
<feColorMatrix in="SourceAlpha" type="matrix" values="0 0 0 0 0 0 0 0 0 0 0 0 0 0 0 0 0 0 127 0" result="hardAlpha"/>
<feOffset dy="4"/>
<feGaussianBlur stdDeviation="2"/>
<feComposite in2="hardAlpha" operator="out"/>
<feColorMatrix type="matrix" values="0 0 0 0 0 0 0 0 0 0 0 0 0 0 0 0 0 0 0.25 0"/>
<feBlend mode="normal" in2="BackgroundImageFix" result="effect1_dropShadow_0_1"/>
<feBlend mode="normal" in="SourceGraphic" in2="effect1_dropShadow_0_1" result="shape"/>
</filter>
</defs>
</svg>
