<svg width="80" height="40" viewBox="0 0 80 40" fill="none" xmlns="http://www.w3.org/2000/svg">
<mask id="path-1-inside-1_0_1" fill="white">
<path fill-rule="evenodd" clip-rule="evenodd" d="M3.98366 2.17653C2.82701 2.59295 2 3.69989 2 5V35C2 36.6569 3.34315 38 5 38H75C76.6569 38 78 36.6569 78 35V5C78 3.69989 77.173 2.59295 76.0163 2.17653L40 20L3.98366 2.17653ZM0 5C0 2.23858 2.23858 0 5 0H75C77.7614 0 80 2.23858 80 5V35C80 37.7614 77.7614 40 75 40H5C2.23858 40 0 37.7614 0 35V5Z"/>
</mask>
<path fill-rule="evenodd" clip-rule="evenodd" d="M3.98366 2.17653C2.82701 2.59295 2 3.69989 2 5V35C2 36.6569 3.34315 38 5 38H75C76.6569 38 78 36.6569 78 35V5C78 3.69989 77.173 2.59295 76.0163 2.17653L40 20L3.98366 2.17653ZM0 5C0 2.23858 2.23858 0 5 0H75C77.7614 0 80 2.23858 80 5V35C80 37.7614 77.7614 40 75 40H5C2.23858 40 0 37.7614 0 35V5Z" fill="white"/>
<path d="M3.98366 2.17653L4.42719 1.28028L4.04556 1.09142L3.64493 1.23565L3.98366 2.17653ZM76.0163 2.17653L76.3551 1.23565L75.9544 1.09142L75.5728 1.28028L76.0163 2.17653ZM40 20L39.5565 20.8963L40 21.1157L40.4435 20.8963L40 20ZM3.64493 1.23565C2.10415 1.79036 1 3.26496 1 5H3C3 4.13483 3.54988 3.39554 4.3224 3.11742L3.64493 1.23565ZM1 5V35H3V5H1ZM1 35C1 37.2091 2.79086 39 5 39V37C3.89543 37 3 36.1046 3 35H1ZM5 39H75V37H5V39ZM75 39C77.2091 39 79 37.2091 79 35H77C77 36.1046 76.1046 37 75 37V39ZM79 35V5H77V35H79ZM79 5C79 3.26496 77.8958 1.79036 76.3551 1.23565L75.6776 3.11742C76.4501 3.39554 77 4.13483 77 5H79ZM40.4435 20.8963L76.4599 3.07279L75.5728 1.28028L39.5565 19.1037L40.4435 20.8963ZM3.54013 3.07279L39.5565 20.8963L40.4435 19.1037L4.42719 1.28028L3.54013 3.07279ZM5 -1C1.68629 -1 -1 1.68629 -1 5H1C1 2.79086 2.79086 1 5 1V-1ZM75 -1H5V1H75V-1ZM81 5C81 1.68629 78.3137 -1 75 -1V1C77.2091 1 79 2.79086 79 5H81ZM81 35V5H79V35H81ZM75 41C78.3137 41 81 38.3137 81 35H79C79 37.2091 77.2091 39 75 39V41ZM5 41H75V39H5V41ZM-1 35C-1 38.3137 1.68629 41 5 41V39C2.79086 39 1 37.2091 1 35H-1ZM-1 5V35H1V5H-1Z" fill="white" mask="url(#path-1-inside-1_0_1)"/>
</svg>
